# xmcd
#
# Track frame offsets:
#	150
#	10350
#	23342
#	36250
#	48572
#	61997
#	73730
#	85287
#	99937
#	113880
#
# Disc length: 1640
#
# Revision: 2
# Processed by: cddbd v1.5.1PL0 Copyright (c) Steve Scherf et al.
# Submitted via: dBpowerAMP V4.0
# Normalized: r0:TDELIM( - ),TSWAP
#
DISCID=7b06660a
DTITLE=Big Sky Country - Branded Country
DYEAR=2000
DGENRE=Country
TTITLE0=Willie Nelson - Healing Hands of Time
TTITLE1=Bobby Helms - My Special Angel
TTITLE2=Frankie Laine - Moonlight Gambler
TTITLE3=Dolly Parton - Letter To Heaven
TTITLE4=Kenny Rogers and The First Edition - Shine On Ruby Mountain
TTITLE5=Conway Twitty - Is A Bluebird Blue
TTITLE6=Frankie Laine - Strange lady in Town
TTITLE7=Johnny Paycheck - Green Green Grass of Home
TTITLE8=Kenny Rogers and The First Edition - Sunshine
TTITLE9=Willie Nelson - One Step Beyond
EXTD=
EXTT0=
EXTT1=
EXTT2=
EXTT3=
EXTT4=
EXTT5=
EXTT6=
EXTT7=
EXTT8=
EXTT9=
PLAYORDER=
